<svg version="1.1" viewBox="0.0 0.0 603.2860892388452 299.9002624671916" fill="none" stroke="none" stroke-linecap="square" stroke-miterlimit="10" xmlns:xlink="http://www.w3.org/1999/xlink" xmlns="http://www.w3.org/2000/svg"><clipPath id="p.0"><path d="m0 0l603.2861 0l0 299.90027l-603.2861 0l0 -299.90027z" clip-rule="nonzero"/></clipPath><g clip-path="url(#p.0)"><path fill="#000000" fill-opacity="0.0" d="m0 0l603.2861 0l0 299.90027l-603.2861 0z" fill-rule="evenodd"/><path stroke="#000000" stroke-width="1.3333333333333333" stroke-linecap="butt" d="m299.0 21.501312l0 28.330708" fill-rule="nonzero"/><path stroke="#000000" stroke-width="1.3333333333333333" stroke-linecap="butt" d="m331.0 21.501312l0 28.330708" fill-rule="nonzero"/><path stroke="#000000" stroke-width="1.3333333333333333" stroke-linecap="butt" d="m418.0 21.501312l0 28.330708" fill-rule="nonzero"/><path stroke="#000000" stroke-width="1.3333333333333333" stroke-linecap="butt" d="m505.0 21.501312l0 28.330708" fill-rule="nonzero"/><path stroke="#000000" stroke-width="1.3333333333333333" stroke-linecap="butt" d="m298.5013 22.0l206.99738 0" fill-rule="nonzero"/><path stroke="#000000" stroke-width="1.3333333333333333" stroke-linecap="butt" d="m298.5013 49.333332l206.99738 0" fill-rule="nonzero"/><path fill="#000000" d="m312.8838 39.02l3.78125 0l0 -0.1875q0 -0.171875 0.0625 -0.25q0.078125 -0.078125 0.1875 -0.078125q0.109375 0 0.171875 0.078125q0.078125 0.078125 0.078125 0.25l0 0.6875l-4.765625 0l0 -0.734375q1.5 -1.34375 2.921875 -2.734375q0.65625 -0.65625 0.90625 -0.953125q0.25 -0.3125 0.328125 -0.53125q0.09375 -0.234375 0.09375 -0.46875q0 -0.640625 -0.515625 -1.125q-0.5 -0.484375 -1.21875 -0.484375q-0.640625 0 -1.140625 0.375q-0.5 0.359375 -0.640625 0.90625q-0.046875 0.140625 -0.09375 0.1875q-0.0625 0.046875 -0.15625 0.046875q-0.109375 0 -0.171875 -0.0625q-0.0625 -0.0625 -0.0625 -0.15625q0 -0.28125 0.296875 -0.765625q0.3125 -0.484375 0.84375 -0.75q0.546875 -0.28125 1.125 -0.28125q0.921875 0 1.578125 0.640625q0.65625 0.640625 0.65625 1.453125q0 0.328125 -0.109375 0.625q-0.109375 0.28125 -0.375 0.625q-0.265625 0.328125 -0.953125 1.0q-1.734375 1.71875 -2.828125 2.65625l0 0.03125z" fill-rule="nonzero"/><path fill="#000000" d="m347.11035 39.52l0 -0.703125q-1.078125 0.890625 -2.296875 0.890625q-0.875 0 -1.375 -0.4375q-0.5 -0.453125 -0.5 -1.109375q0 -0.703125 0.65625 -1.234375q0.65625 -0.546875 1.921875 -0.546875q0.328125 0 0.71875 0.046875q0.40625 0.046875 0.875 0.140625l0 -0.796875q0 -0.40625 -0.375 -0.703125q-0.375 -0.296875 -1.125 -0.296875q-0.578125 0 -1.609375 0.328125q-0.1875 0.0625 -0.234375 0.0625q-0.09375 0 -0.171875 -0.0625q-0.0625 -0.078125 -0.0625 -0.1875q0 -0.09375 0.0625 -0.15625q0.078125 -0.09375 0.65625 -0.234375q0.921875 -0.25 1.390625 -0.25q0.921875 0 1.4375 0.46875q0.53125 0.453125 0.53125 1.03125l0 3.25l0.65625 0q0.1875 0 0.25 0.078125q0.078125 0.0625 0.078125 0.171875q0 0.109375 -0.078125 0.1875q-0.0625 0.0625 -0.25 0.0625l-1.15625 0zm0 -2.453125q-0.34375 -0.09375 -0.734375 -0.140625q-0.390625 -0.046875 -0.8125 -0.046875q-1.078125 0 -1.671875 0.453125q-0.453125 0.359375 -0.453125 0.828125q0 0.453125 0.34375 0.765625q0.34375 0.296875 1.015625 0.296875q0.640625 0 1.1875 -0.25q0.546875 -0.265625 1.125 -0.8125l0 -1.09375zm9.060547 5.734375l-6.546875 0q-0.171875 0 -0.25 -0.0625q-0.078125 -0.0625 -0.078125 -0.171875q0 -0.109375 0.078125 -0.1875q0.078125 -0.0625 0.25 -0.0625l6.546875 0q0.1875 0 0.25 0.0625q0.078125 0.078125 0.078125 0.1875q0 0.109375 -0.078125 0.171875q-0.0625 0.0625 -0.25 0.0625zm2.0761719 -8.359375l0 0.90625q0.4375 -0.546875 0.9375 -0.8125q0.5 -0.265625 1.1875 -0.265625q0.734375 0 1.34375 0.34375q0.625 0.328125 0.953125 0.9375q0.34375 0.609375 0.34375 1.28125q0 1.0625 -0.765625 1.8125q-0.75 0.75 -1.859375 0.75q-1.328125 0 -2.140625 -1.078125l0 2.96875l1.1875 0q0.1875 0 0.25 0.0625q0.078125 0.078125 0.078125 0.1875q0 0.109375 -0.078125 0.171875q-0.0625 0.078125 -0.25 0.078125l-2.34375 0q-0.171875 0 -0.25 -0.078125q-0.078125 -0.0625 -0.078125 -0.171875q0 -0.109375 0.078125 -0.1875q0.078125 -0.0625 0.25 -0.0625l0.65625 0l0 -6.34375l-0.65625 0q-0.171875 0 -0.25 -0.0625q-0.078125 -0.078125 -0.078125 -0.1875q0 -0.109375 0.078125 -0.171875q0.078125 -0.078125 0.25 -0.078125l1.15625 0zm4.265625 2.390625q0 -0.859375 -0.625 -1.453125q-0.609375 -0.609375 -1.5 -0.609375q-0.90625 0 -1.53125 0.609375q-0.609375 0.609375 -0.609375 1.453125q0 0.84375 0.609375 1.453125q0.625 0.609375 1.53125 0.609375q0.875 0 1.5 -0.59375q0.625 -0.609375 0.625 -1.46875zm7.544922 0.15625q0 1.125 -0.8125 1.921875q-0.8125 0.796875 -1.9375 0.796875q-1.15625 0 -1.96875 -0.796875q-0.796875 -0.796875 -0.796875 -1.921875q0 -1.125 0.796875 -1.921875q0.8125 -0.796875 1.96875 -0.796875q1.125 0 1.9375 0.796875q0.8125 0.796875 0.8125 1.921875zm-0.5 0q0 -0.921875 -0.671875 -1.5625q-0.65625 -0.65625 -1.59375 -0.65625q-0.9375 0 -1.59375 0.65625q-0.65625 0.640625 -0.65625 1.5625q0 0.921875 0.65625 1.578125q0.65625 0.65625 1.59375 0.65625q0.9375 0 1.59375 -0.65625q0.671875 -0.65625 0.671875 -1.578125zm5.185547 -5.0625l0 1.265625l-0.71875 0l0 -1.265625l0.71875 0zm0.015625 2.515625l0 4.578125l1.9375 0q0.1875 0 0.25 0.078125q0.078125 0.0625 0.078125 0.171875q0 0.109375 -0.078125 0.1875q-0.0625 0.0625 -0.25 0.0625l-4.359375 0q-0.171875 0 -0.25 -0.0625q-0.078125 -0.078125 -0.078125 -0.1875q0 -0.109375 0.078125 -0.171875q0.078125 -0.078125 0.25 -0.078125l1.9375 0l0 -4.078125l-1.4375 0q-0.171875 0 -0.265625 -0.0625q-0.078125 -0.078125 -0.078125 -0.1875q0 -0.109375 0.078125 -0.171875q0.078125 -0.078125 0.265625 -0.078125l1.921875 0zm5.357422 0l0 0.75q0.515625 -0.53125 0.921875 -0.71875q0.421875 -0.203125 0.9375 -0.203125q0.5625 0 1.03125 0.234375q0.328125 0.1875 0.59375 0.59375q0.265625 0.40625 0.265625 0.828125l0 3.09375l0.421875 0q0.171875 0 0.25 0.078125q0.078125 0.0625 0.078125 0.171875q0 0.109375 -0.078125 0.1875q-0.078125 0.0625 -0.25 0.0625l-1.328125 0q-0.171875 0 -0.25 -0.0625q-0.078125 -0.078125 -0.078125 -0.1875q0 -0.109375 0.078125 -0.171875q0.078125 -0.078125 0.25 -0.078125l0.421875 0l0 -3.015625q0 -0.515625 -0.390625 -0.875q-0.375 -0.359375 -1.015625 -0.359375q-0.484375 0 -0.84375 0.203125q-0.359375 0.1875 -1.015625 0.96875l0 3.078125l0.546875 0q0.1875 0 0.25 0.078125q0.078125 0.0625 0.078125 0.171875q0 0.109375 -0.078125 0.1875q-0.0625 0.0625 -0.25 0.0625l-1.59375 0q-0.1875 0 -0.265625 -0.0625q-0.0625 -0.078125 -0.0625 -0.1875q0 -0.109375 0.0625 -0.171875q0.078125 -0.078125 0.265625 -0.078125l0.546875 0l0 -4.078125l-0.40625 0q-0.1875 0 -0.265625 -0.0625q-0.0625 -0.078125 -0.0625 -0.1875q0 -0.109375 0.0625 -0.171875q0.078125 -0.078125 0.265625 -0.078125l0.90625 0zm7.779297 0l2.671875 0q0.171875 0 0.25 0.078125q0.078125 0.0625 0.078125 0.171875q0 0.109375 -0.078125 0.1875q-0.078125 0.0625 -0.25 0.0625l-2.671875 0l0 3.28125q0 0.421875 0.34375 0.71875q0.34375 0.28125 1.0 0.28125q0.5 0 1.078125 -0.140625q0.578125 -0.15625 0.90625 -0.34375q0.109375 -0.078125 0.1875 -0.078125q0.09375 0 0.15625 0.078125q0.078125 0.0625 0.078125 0.171875q0 0.078125 -0.078125 0.15625q-0.1875 0.1875 -0.90625 0.421875q-0.71875 0.21875 -1.390625 0.21875q-0.859375 0 -1.375 -0.390625q-0.5 -0.40625 -0.5 -1.09375l0 -3.28125l-0.90625 0q-0.171875 0 -0.25 -0.0625q-0.078125 -0.078125 -0.078125 -0.1875q0 -0.109375 0.078125 -0.171875q0.078125 -0.078125 0.25 -0.078125l0.90625 0l0 -1.453125q0 -0.171875 0.0625 -0.25q0.078125 -0.078125 0.1875 -0.078125q0.109375 0 0.171875 0.078125q0.078125 0.078125 0.078125 0.25l0 1.453125zm10.873047 2.65625l-5.015625 0q0.125 0.953125 0.796875 1.546875q0.671875 0.578125 1.65625 0.578125q0.5625 0 1.15625 -0.171875q0.609375 -0.1875 0.984375 -0.5q0.109375 -0.078125 0.203125 -0.078125q0.09375 0 0.15625 0.078125q0.078125 0.0625 0.078125 0.171875q0 0.09375 -0.09375 0.1875q-0.28125 0.296875 -1.0 0.546875q-0.71875 0.25 -1.484375 0.25q-1.265625 0 -2.109375 -0.828125q-0.84375 -0.828125 -0.84375 -2.0q0 -1.078125 0.796875 -1.84375q0.796875 -0.765625 1.96875 -0.765625q1.203125 0 1.984375 0.796875q0.78125 0.78125 0.765625 2.03125zm-0.5 -0.5q-0.140625 -0.8125 -0.765625 -1.3125q-0.625 -0.515625 -1.484375 -0.515625q-0.859375 0 -1.484375 0.5q-0.625 0.5 -0.78125 1.328125l4.515625 0zm4.451172 -2.15625l0 1.25q0.953125 -0.875 1.421875 -1.125q0.484375 -0.25 0.890625 -0.25q0.4375 0 0.8125 0.296875q0.390625 0.296875 0.390625 0.453125q0 0.109375 -0.078125 0.1875q-0.078125 0.0625 -0.1875 0.0625q-0.046875 0 -0.09375 -0.015625q-0.046875 -0.015625 -0.15625 -0.125q-0.203125 -0.203125 -0.359375 -0.28125q-0.140625 -0.078125 -0.296875 -0.078125q-0.3125 0 -0.78125 0.265625q-0.453125 0.25 -1.5625 1.25l0 2.6875l2.171875 0q0.1875 0 0.265625 0.078125q0.078125 0.0625 0.078125 0.171875q0 0.109375 -0.078125 0.1875q-0.078125 0.0625 -0.265625 0.0625l-3.859375 0q-0.171875 0 -0.25 -0.0625q-0.078125 -0.078125 -0.078125 -0.171875q0 -0.109375 0.078125 -0.171875q0.078125 -0.0625 0.25 -0.0625l1.1875 0l0 -4.109375l-0.90625 0q-0.171875 0 -0.25 -0.0625q-0.078125 -0.078125 -0.078125 -0.1875q0 -0.109375 0.078125 -0.171875q0.078125 -0.078125 0.25 -0.078125l1.40625 0z" fill-rule="nonzero"/><path fill="#000000" d="m430.84473 32.160625l0 3.265625q0.890625 -1.15625 2.140625 -1.15625q1.078125 0 1.84375 0.78125q0.78125 0.78125 0.78125 1.921875q0 1.140625 -0.78125 1.9375q-0.78125 0.796875 -1.84375 0.796875q-1.28125 0 -2.140625 -1.15625l0 0.96875l-1.15625 0q-0.171875 0 -0.25 -0.0625q-0.078125 -0.078125 -0.078125 -0.1875q0 -0.109375 0.078125 -0.171875q0.078125 -0.078125 0.25 -0.078125l0.65625 0l0 -6.359375l-0.65625 0q-0.171875 0 -0.25 -0.0625q-0.078125 -0.078125 -0.078125 -0.1875q0 -0.109375 0.078125 -0.171875q0.078125 -0.078125 0.25 -0.078125l1.15625 0zm4.265625 4.828125q0 -0.921875 -0.640625 -1.5625q-0.640625 -0.65625 -1.484375 -0.65625q-0.859375 0 -1.5 0.65625q-0.640625 0.640625 -0.640625 1.5625q0 0.9375 0.640625 1.59375q0.640625 0.640625 1.5 0.640625q0.84375 0 1.484375 -0.640625q0.640625 -0.65625 0.640625 -1.59375zm8.060547 5.8125l-6.546875 0q-0.171875 0 -0.25 -0.0625q-0.078125 -0.0625 -0.078125 -0.171875q0 -0.109375 0.078125 -0.1875q0.078125 -0.0625 0.25 -0.0625l6.546875 0q0.1875 0 0.25 0.0625q0.078125 0.078125 0.078125 0.1875q0 0.109375 -0.078125 0.171875q-0.0625 0.0625 -0.25 0.0625zm2.0761719 -8.359375l0 0.90625q0.4375 -0.546875 0.9375 -0.8125q0.5 -0.265625 1.1875 -0.265625q0.734375 0 1.34375 0.34375q0.625 0.328125 0.953125 0.9375q0.34375 0.609375 0.34375 1.28125q0 1.0625 -0.765625 1.8125q-0.75 0.75 -1.859375 0.75q-1.328125 0 -2.140625 -1.078125l0 2.96875l1.1875 0q0.1875 0 0.25 0.0625q0.078125 0.078125 0.078125 0.1875q0 0.109375 -0.078125 0.171875q-0.0625 0.078125 -0.25 0.078125l-2.34375 0q-0.171875 0 -0.25 -0.078125q-0.078125 -0.0625 -0.078125 -0.171875q0 -0.109375 0.078125 -0.1875q0.078125 -0.0625 0.25 -0.0625l0.65625 0l0 -6.34375l-0.65625 0q-0.171875 0 -0.25 -0.0625q-0.078125 -0.078125 -0.078125 -0.1875q0 -0.109375 0.078125 -0.171875q0.078125 -0.078125 0.25 -0.078125l1.15625 0zm4.265625 2.390625q0 -0.859375 -0.625 -1.453125q-0.609375 -0.609375 -1.5 -0.609375q-0.90625 0 -1.53125 0.609375q-0.609375 0.609375 -0.609375 1.453125q0 0.84375 0.609375 1.453125q0.625 0.609375 1.53125 0.609375q0.875 0 1.5 -0.59375q0.625 -0.609375 0.625 -1.46875zm7.544922 0.15625q0 1.125 -0.8125 1.921875q-0.8125 0.796875 -1.9375 0.796875q-1.15625 0 -1.96875 -0.796875q-0.796875 -0.796875 -0.796875 -1.921875q0 -1.125 0.796875 -1.921875q0.8125 -0.796875 1.96875 -0.796875q1.125 0 1.9375 0.796875q0.8125 0.796875 0.8125 1.921875zm-0.5 0q0 -0.921875 -0.671875 -1.5625q-0.65625 -0.65625 -1.59375 -0.65625q-0.9375 0 -1.59375 0.65625q-0.65625 0.640625 -0.65625 1.5625q0 0.921875 0.65625 1.578125q0.65625 0.65625 1.59375 0.65625q0.9375 0 1.59375 -0.65625q0.671875 -0.65625 0.671875 -1.578125zm5.185547 -5.0625l0 1.265625l-0.71875 0l0 -1.265625l0.71875 0zm0.015625 2.515625l0 4.578125l1.9375 0q0.1875 0 0.25 0.078125q0.078125 0.0625 0.078125 0.171875q0 0.109375 -0.078125 0.1875q-0.0625 0.0625 -0.25 0.0625l-4.359375 0q-0.171875 0 -0.25 -0.0625q-0.078125 -0.078125 -0.078125 -0.1875q0 -0.109375 0.078125 -0.171875q0.078125 -0.078125 0.25 -0.078125l1.9375 0l0 -4.078125l-1.4375 0q-0.171875 0 -0.265625 -0.0625q-0.078125 -0.078125 -0.078125 -0.1875q0 -0.109375 0.078125 -0.171875q0.078125 -0.078125 0.265625 -0.078125l1.921875 0zm5.357422 0l0 0.75q0.515625 -0.53125 0.921875 -0.71875q0.421875 -0.203125 0.9375 -0.203125q0.5625 0 1.03125 0.234375q0.328125 0.1875 0.59375 0.59375q0.265625 0.40625 0.265625 0.828125l0 3.09375l0.421875 0q0.171875 0 0.25 0.078125q0.078125 0.0625 0.078125 0.171875q0 0.109375 -0.078125 0.1875q-0.078125 0.0625 -0.25 0.0625l-1.328125 0q-0.171875 0 -0.25 -0.0625q-0.078125 -0.078125 -0.078125 -0.1875q0 -0.109375 0.078125 -0.171875q0.078125 -0.078125 0.25 -0.078125l0.421875 0l0 -3.015625q0 -0.515625 -0.390625 -0.875q-0.375 -0.359375 -1.015625 -0.359375q-0.484375 0 -0.84375 0.203125q-0.359375 0.1875 -1.015625 0.96875l0 3.078125l0.546875 0q0.1875 0 0.25 0.078125q0.078125 0.0625 0.078125 0.171875q0 0.109375 -0.078125 0.1875q-0.0625 0.0625 -0.25 0.0625l-1.59375 0q-0.1875 0 -0.265625 -0.0625q-0.0625 -0.078125 -0.0625 -0.1875q0 -0.109375 0.0625 -0.171875q0.078125 -0.078125 0.265625 -0.078125l0.546875 0l0 -4.078125l-0.40625 0q-0.1875 0 -0.265625 -0.0625q-0.0625 -0.078125 -0.0625 -0.1875q0 -0.109375 0.0625 -0.171875q0.078125 -0.078125 0.265625 -0.078125l0.90625 0zm7.779297 0l2.671875 0q0.171875 0 0.25 0.078125q0.078125 0.0625 0.078125 0.171875q0 0.109375 -0.078125 0.1875q-0.078125 0.0625 -0.25 0.0625l-2.671875 0l0 3.28125q0 0.421875 0.34375 0.71875q0.34375 0.28125 1.0 0.28125q0.5 0 1.078125 -0.140625q0.578125 -0.15625 0.90625 -0.34375q0.109375 -0.078125 0.1875 -0.078125q0.09375 0 0.15625 0.078125q0.078125 0.0625 0.078125 0.171875q0 0.078125 -0.078125 0.15625q-0.1875 0.1875 -0.90625 0.421875q-0.71875 0.21875 -1.390625 0.21875q-0.859375 0 -1.375 -0.390625q-0.5 -0.40625 -0.5 -1.09375l0 -3.28125l-0.90625 0q-0.171875 0 -0.25 -0.0625q-0.078125 -0.078125 -0.078125 -0.1875q0 -0.109375 0.078125 -0.171875q0.078125 -0.078125 0.25 -0.078125l0.90625 0l0 -1.453125q0 -0.171875 0.0625 -0.25q0.078125 -0.078125 0.1875 -0.078125q0.109375 0 0.171875 0.078125q0.078125 0.078125 0.078125 0.25l0 1.453125zm10.873047 2.65625l-5.015625 0q0.125 0.953125 0.796875 1.546875q0.671875 0.578125 1.65625 0.578125q0.5625 0 1.15625 -0.171875q0.609375 -0.1875 0.984375 -0.5q0.109375 -0.078125 0.203125 -0.078125q0.09375 0 0.15625 0.078125q0.078125 0.0625 0.078125 0.171875q0 0.09375 -0.09375 0.1875q-0.28125 0.296875 -1.0 0.546875q-0.71875 0.25 -1.484375 0.25q-1.265625 0 -2.109375 -0.828125q-0.84375 -0.828125 -0.84375 -2.0q0 -1.078125 0.796875 -1.84375q0.796875 -0.765625 1.96875 -0.765625q1.203125 0 1.984375 0.796875q0.78125 0.78125 0.765625 2.03125zm-0.5 -0.5q-0.140625 -0.8125 -0.765625 -1.3125q-0.625 -0.515625 -1.484375 -0.515625q-0.859375 0 -1.484375 0.5q-0.625 0.5 -0.78125 1.328125l4.515625 0zm4.451172 -2.15625l0 1.25q0.953125 -0.875 1.421875 -1.125q0.484375 -0.25 0.890625 -0.25q0.4375 0 0.8125 0.296875q0.390625 0.296875 0.390625 0.453125q0 0.109375 -0.078125 0.1875q-0.078125 0.0625 -0.1875 0.0625q-0.046875 0 -0.09375 -0.015625q-0.046875 -0.015625 -0.15625 -0.125q-0.203125 -0.203125 -0.359375 -0.28125q-0.140625 -0.078125 -0.296875 -0.078125q-0.3125 0 -0.78125 0.265625q-0.453125 0.25 -1.5625 1.25l0 2.6875l2.171875 0q0.1875 0 0.265625 0.078125q0.078125 0.0625 0.078125 0.171875q0 0.109375 -0.078125 0.1875q-0.078125 0.0625 -0.265625 0.0625l-3.859375 0q-0.171875 0 -0.25 -0.0625q-0.078125 -0.078125 -0.078125 -0.171875q0 -0.109375 0.078125 -0.171875q0.078125 -0.0625 0.25 -0.0625l1.1875 0l0 -4.109375l-0.90625 0q-0.171875 0 -0.25 -0.0625q-0.078125 -0.078125 -0.078125 -0.1875q0 -0.109375 0.078125 -0.171875q0.078125 -0.078125 0.25 -0.078125l1.40625 0z" fill-rule="nonzero"/><path stroke="#000000" stroke-width="1.3333333333333333" stroke-linecap="butt" d="m301.01575 111.50131l0 28.330704" fill-rule="nonzero"/><path stroke="#000000" stroke-width="1.3333333333333333" stroke-linecap="butt" d="m333.01575 111.50131l0 28.330704" fill-rule="nonzero"/><path stroke="#000000" stroke-width="1.3333333333333333" stroke-linecap="butt" d="m420.01575 111.50131l0 28.330704" fill-rule="nonzero"/><path stroke="#000000" stroke-width="1.3333333333333333" stroke-linecap="butt" d="m300.51706 112.0l119.997375 0" fill-rule="nonzero"/><path stroke="#000000" stroke-width="1.3333333333333333" stroke-linecap="butt" d="m300.51706 139.33333l119.997375 0" fill-rule="nonzero"/><path fill="#000000" d="m317.9308 127.457504l-3.265625 0l0 -0.5625l2.734375 -4.734375l1.03125 0l0 4.8125l0.40625 0q0.1875 0 0.265625 0.0625q0.078125 0.0625 0.078125 0.1875q0 0.09375 -0.078125 0.171875q-0.078125 0.0625 -0.265625 0.0625l-0.40625 0l0 1.5625l0.40625 0q0.1875 0 0.265625 0.078125q0.078125 0.0625 0.078125 0.171875q0 0.109375 -0.078125 0.1875q-0.078125 0.0625 -0.265625 0.0625l-1.828125 0q-0.171875 0 -0.25 -0.0625q-0.078125 -0.078125 -0.078125 -0.1875q0 -0.109375 0.078125 -0.171875q0.078125 -0.078125 0.25 -0.078125l0.921875 0l0 -1.5625zm0 -0.484375l0 -4.3125l-0.25 0l-2.5 4.3125l2.75 0z" fill-rule="nonzero"/><path fill="#000000" d="m369.55774 122.06688l0 6.953125l1.6875 0q0.171875 0 0.25 0.078125q0.078125 0.0625 0.078125 0.171875q0 0.109375 -0.078125 0.1875q-0.078125 0.0625 -0.25 0.0625l-3.859375 0q-0.1875 0 -0.265625 -0.0625q-0.0625 -0.078125 -0.0625 -0.1875q0 -0.109375 0.0625 -0.171875q0.078125 -0.078125 0.265625 -0.078125l1.6875 0l0 -6.28125l-1.609375 0.515625q-0.125 0.03125 -0.171875 0.03125q-0.09375 0 -0.171875 -0.0625q-0.0625 -0.078125 -0.0625 -0.1875q0 -0.078125 0.0625 -0.15625q0.046875 -0.046875 0.1875 -0.109375l2.25 -0.703125zm4.841797 6.953125l3.78125 0l0 -0.1875q0 -0.171875 0.0625 -0.25q0.078125 -0.078125 0.1875 -0.078125q0.109375 0 0.171875 0.078125q0.078125 0.078125 0.078125 0.25l0 0.6875l-4.765625 0l0 -0.734375q1.5 -1.34375 2.921875 -2.734375q0.65625 -0.65625 0.90625 -0.953125q0.25 -0.3125 0.328125 -0.53125q0.09375 -0.234375 0.09375 -0.46875q0 -0.640625 -0.515625 -1.125q-0.5 -0.484375 -1.21875 -0.484375q-0.640625 0 -1.140625 0.375q-0.5 0.359375 -0.640625 0.90625q-0.046875 0.140625 -0.09375 0.1875q-0.0625 0.046875 -0.15625 0.046875q-0.109375 0 -0.171875 -0.0625q-0.0625 -0.0625 -0.0625 -0.15625q0 -0.28125 0.296875 -0.765625q0.3125 -0.484375 0.84375 -0.75q0.546875 -0.28125 1.125 -0.28125q0.921875 0 1.578125 0.640625q0.65625 0.640625 0.65625 1.453125q0 0.328125 -0.109375 0.625q-0.109375 0.28125 -0.375 0.625q-0.265625 0.328125 -0.953125 1.0q-1.734375 1.71875 -2.828125 2.65625l0 0.03125zm10.326172 -3.5q0.6875 0.296875 1.03125 0.828125q0.359375 0.53125 0.359375 1.109375q0 0.890625 -0.71875 1.5625q-0.703125 0.671875 -1.78125 0.671875q-0.640625 0 -1.328125 -0.265625q-0.671875 -0.265625 -0.9375 -0.546875q-0.09375 -0.09375 -0.09375 -0.203125q0 -0.09375 0.0625 -0.15625q0.078125 -0.078125 0.171875 -0.078125q0.09375 0 0.203125 0.09375q0.90625 0.671875 1.921875 0.671875q0.859375 0 1.4375 -0.53125q0.578125 -0.546875 0.578125 -1.203125q0 -0.4375 -0.28125 -0.859375q-0.28125 -0.421875 -0.828125 -0.65625q-0.53125 -0.25 -1.078125 -0.25q-0.171875 0 -0.25 -0.0625q-0.078125 -0.078125 -0.078125 -0.1875q0 -0.109375 0.078125 -0.171875q0.078125 -0.078125 0.21875 -0.078125l0.421875 0.015625q0.671875 0 1.09375 -0.40625q0.4375 -0.40625 0.4375 -0.9375q0 -0.546875 -0.453125 -0.96875q-0.453125 -0.421875 -1.1875 -0.421875q-0.5 0 -0.9375 0.171875q-0.421875 0.171875 -0.671875 0.484375q-0.09375 0.109375 -0.15625 0.140625q-0.046875 0.015625 -0.109375 0.015625q-0.09375 0 -0.171875 -0.0625q-0.0625 -0.0625 -0.0625 -0.15625q0 -0.234375 0.5 -0.59375q0.71875 -0.5 1.609375 -0.5q0.9375 0 1.53125 0.5625q0.609375 0.5625 0.609375 1.328125q0 0.5 -0.296875 0.9375q-0.28125 0.4375 -0.84375 0.703125z" fill-rule="nonzero"/><path stroke="#000000" stroke-width="1.3333333333333333" stroke-linecap="butt" d="m431.0 111.50131l0 28.330704" fill-rule="nonzero"/><path stroke="#000000" stroke-width="1.3333333333333333" stroke-linecap="butt" d="m463.0 111.50131l0 28.330704" fill-rule="nonzero"/><path stroke="#000000" stroke-width="1.3333333333333333" stroke-linecap="butt" d="m550.0 111.50131l0 28.330704" fill-rule="nonzero"/><path stroke="#000000" stroke-width="1.3333333333333333" stroke-linecap="butt" d="m430.5013 112.0l119.997345 0" fill-rule="nonzero"/><path stroke="#000000" stroke-width="1.3333333333333333" stroke-linecap="butt" d="m430.5013 139.33333l119.997345 0" fill-rule="nonzero"/><path fill="#000000" d="m447.91504 127.457504l-3.265625 0l0 -0.5625l2.734375 -4.734375l1.03125 0l0 4.8125l0.40625 0q0.1875 0 0.265625 0.0625q0.078125 0.0625 0.078125 0.1875q0 0.09375 -0.078125 0.171875q-0.078125 0.0625 -0.265625 0.0625l-0.40625 0l0 1.5625l0.40625 0q0.1875 0 0.265625 0.078125q0.078125 0.0625 0.078125 0.171875q0 0.109375 -0.078125 0.1875q-0.078125 0.0625 -0.265625 0.0625l-1.828125 0q-0.171875 0 -0.25 -0.0625q-0.078125 -0.078125 -0.078125 -0.1875q0 -0.109375 0.078125 -0.171875q0.078125 -0.078125 0.25 -0.078125l0.921875 0l0 -1.5625zm0 -0.484375l0 -4.3125l-0.25 0l-2.5 4.3125l2.75 0z" fill-rule="nonzero"/><path fill="#000000" d="m500.21387 127.457504l-3.265625 0l0 -0.5625l2.734375 -4.734375l1.03125 0l0 4.8125l0.40625 0q0.1875 0 0.265625 0.0625q0.078125 0.0625 0.078125 0.1875q0 0.09375 -0.078125 0.171875q-0.078125 0.0625 -0.265625 0.0625l-0.40625 0l0 1.5625l0.40625 0q0.1875 0 0.265625 0.078125q0.078125 0.0625 0.078125 0.171875q0 0.109375 -0.078125 0.1875q-0.078125 0.0625 -0.265625 0.0625l-1.828125 0q-0.171875 0 -0.25 -0.0625q-0.078125 -0.078125 -0.078125 -0.1875q0 -0.109375 0.078125 -0.171875q0.078125 -0.078125 0.25 -0.078125l0.921875 0l0 -1.5625zm0 -0.484375l0 -4.3125l-0.25 0l-2.5 4.3125l2.75 0zm4.935547 -4.3125l0 2.40625q0.421875 -0.171875 0.8125 -0.265625q0.40625 -0.09375 0.765625 -0.09375q0.9375 0 1.546875 0.65625q0.625 0.640625 0.625 1.703125q0 1.171875 -0.703125 1.90625q-0.703125 0.71875 -1.75 0.71875q-0.703125 0 -1.34375 -0.3125q-0.453125 -0.21875 -0.828125 -0.53125q-0.21875 -0.203125 -0.21875 -0.328125q0 -0.109375 0.0625 -0.171875q0.078125 -0.078125 0.171875 -0.078125q0.09375 0 0.203125 0.109375q0.890625 0.828125 1.921875 0.828125q0.875 0 1.4375 -0.59375q0.5625 -0.59375 0.5625 -1.5625q0 -0.84375 -0.5 -1.34375q-0.484375 -0.5 -1.234375 -0.5q-0.765625 0 -1.53125 0.390625q-0.1875 0.09375 -0.265625 0.09375q-0.109375 0 -0.171875 -0.0625q-0.0625 -0.078125 -0.0625 -0.203125l0 -3.265625l3.4375 0q0.171875 0 0.25 0.078125q0.078125 0.0625 0.078125 0.171875q0 0.109375 -0.078125 0.1875q-0.078125 0.0625 -0.25 0.0625l-2.9375 0zm7.091797 3.75q0.453125 -0.671875 0.9375 -1.0q0.484375 -0.328125 1.078125 -0.328125q0.78125 0 1.390625 0.65625q0.609375 0.65625 0.609375 1.625q0 0.875 -0.5625 1.609375q-0.546875 0.71875 -1.53125 0.71875q-0.640625 0 -1.203125 -0.390625q-0.546875 -0.390625 -0.859375 -1.203125q-0.390625 -1.015625 -0.390625 -2.25q0 -0.921875 0.359375 -1.71875q0.28125 -0.609375 0.75 -1.078125q0.46875 -0.46875 1.09375 -0.765625q0.625 -0.296875 1.359375 -0.296875q0.484375 0 0.8125 0.203125q0.140625 0.078125 0.140625 0.234375q0 0.109375 -0.0625 0.171875q-0.0625 0.0625 -0.15625 0.0625q-0.078125 0 -0.1875 -0.0625q-0.234375 -0.109375 -0.59375 -0.109375q-1.140625 0 -2.09375 0.984375q-0.9375 0.984375 -0.9375 2.328125q0 0.203125 0.046875 0.609375zm0.109375 0.8125q0.21875 1.0625 0.6875 1.53125q0.484375 0.453125 1.140625 0.453125q0.65625 0 1.109375 -0.515625q0.46875 -0.515625 0.46875 -1.328125q0 -0.78125 -0.46875 -1.28125q-0.46875 -0.5 -1.0625 -0.5q-0.5625 0 -1.09375 0.484375q-0.34375 0.328125 -0.78125 1.15625z" fill-rule="nonzero"/><path fill="#000000" fill-opacity="0.0" d="m463.0 50.800526c0 14.503933 -5.2519836 21.755901 -10.503937 29.00787c-5.2519836 7.2519684 -10.503937 14.503937 -10.503937 29.007881" fill-rule="evenodd"/><path stroke="#000000" stroke-width="3.0" stroke-linejoin="round" stroke-linecap="butt" d="m463.0 50.800526c0 14.503933 -5.2519836 21.755901 -10.503937 29.00787c-2.6259766 3.6259842 -5.2519836 7.2519684 -7.221466 11.784454c-0.4923706 1.1331177 -0.9437256 2.3228912 -1.34375 3.583496c-0.20004272 0.6302872 -0.38726807 1.2782974 -0.56030273 1.9457703c-0.08657837 0.33374786 -0.16958618 0.672348 -0.2489624 1.0160446l-0.1003418 0.44848633" fill-rule="evenodd"/><path fill="#000000" stroke="#000000" stroke-width="3.0" stroke-linecap="butt" d="m443.02124 98.58665l-3.019104 -3.6945038l2.4289856 9.560448l4.2846375 -8.885048z" fill-rule="evenodd"/><path fill="#000000" fill-opacity="0.0" d="m351.0 50.800526c0 15.251965 -8.503937 22.877949 -17.007874 30.503933c-8.503937 7.625984 -17.007874 15.251968 -17.007874 30.503937" fill-rule="evenodd"/><path stroke="#000000" stroke-width="3.0" stroke-linejoin="round" stroke-linecap="butt" d="m351.0 50.800526c0 15.251965 -8.503937 22.877949 -17.007874 30.503933c-4.2519836 3.812996 -8.503937 7.625984 -11.692902 12.392227c-0.7972412 1.1915588 -1.5280762 2.4426956 -2.1758118 3.7683105c-0.32388306 0.66280365 -0.62701416 1.344223 -0.9072876 2.0461273c-0.14016724 0.35095978 -0.27459717 0.70703125 -0.40304565 1.0684433c-0.0642395 0.18071747 -0.12695312 0.36277008 -0.18817139 0.54618835l-0.1640625 0.5079727" fill-rule="evenodd"/><path fill="#000000" stroke="#000000" stroke-width="3.0" stroke-linecap="butt" d="m318.46085 101.63373l-2.8542175 -3.8233185l2.0075073 9.657753l4.670044 -8.688667z" fill-rule="evenodd"/><path stroke="#000000" stroke-width="1.3333333333333333" stroke-linecap="butt" d="m296.0 230.84251l0 28.330704" fill-rule="nonzero"/><path stroke="#000000" stroke-width="1.3333333333333333" stroke-linecap="butt" d="m328.0 230.84251l0 28.330704" fill-rule="nonzero"/><path stroke="#000000" stroke-width="1.3333333333333333" stroke-linecap="butt" d="m415.0 230.84251l0 28.330704" fill-rule="nonzero"/><path stroke="#000000" stroke-width="1.3333333333333333" stroke-linecap="butt" d="m502.0 230.84251l0 28.330704" fill-rule="nonzero"/><path stroke="#000000" stroke-width="1.3333333333333333" stroke-linecap="butt" d="m295.5013 231.3412l206.99738 0" fill-rule="nonzero"/><path stroke="#000000" stroke-width="1.3333333333333333" stroke-linecap="butt" d="m295.5013 258.67453l206.99738 0" fill-rule="nonzero"/><path fill="#000000" d="m309.8838 248.3612l3.78125 0l0 -0.1875q0 -0.171875 0.0625 -0.25q0.078125 -0.078125 0.1875 -0.078125q0.109375 0 0.171875 0.078125q0.078125 0.078125 0.078125 0.25l0 0.6875l-4.765625 0l0 -0.734375q1.5 -1.34375 2.921875 -2.734375q0.65625 -0.65625 0.90625 -0.953125q0.25 -0.3125 0.328125 -0.53125q0.09375 -0.234375 0.09375 -0.46875q0 -0.640625 -0.515625 -1.125q-0.5 -0.484375 -1.21875 -0.484375q-0.640625 0 -1.140625 0.375q-0.5 0.359375 -0.640625 0.90625q-0.046875 0.140625 -0.09375 0.1875q-0.0625 0.046875 -0.15625 0.046875q-0.109375 0 -0.171875 -0.0625q-0.0625 -0.0625 -0.0625 -0.15625q0 -0.28125 0.296875 -0.765625q0.3125 -0.484375 0.84375 -0.75q0.546875 -0.28125 1.125 -0.28125q0.921875 0 1.578125 0.640625q0.65625 0.640625 0.65625 1.453125q0 0.328125 -0.109375 0.625q-0.109375 0.28125 -0.375 0.625q-0.265625 0.328125 -0.953125 1.0q-1.734375 1.71875 -2.828125 2.65625l0 0.03125z" fill-rule="nonzero"/><path fill="#000000" d="m364.542 241.40808l0 6.953125l1.6875 0q0.171875 0 0.25 0.078125q0.078125 0.0625 0.078125 0.171875q0 0.109375 -0.078125 0.1875q-0.078125 0.0625 -0.25 0.0625l-3.859375 0q-0.1875 0 -0.265625 -0.0625q-0.0625 -0.078125 -0.0625 -0.1875q0 -0.109375 0.0625 -0.171875q0.078125 -0.078125 0.265625 -0.078125l1.6875 0l0 -6.28125l-1.609375 0.515625q-0.125 0.03125 -0.171875 0.03125q-0.09375 0 -0.171875 -0.0625q-0.0625 -0.078125 -0.0625 -0.1875q0 -0.078125 0.0625 -0.15625q0.046875 -0.046875 0.1875 -0.109375l2.25 -0.703125zm4.841797 6.953125l3.78125 0l0 -0.1875q0 -0.171875 0.0625 -0.25q0.078125 -0.078125 0.1875 -0.078125q0.109375 0 0.171875 0.078125q0.078125 0.078125 0.078125 0.25l0 0.6875l-4.765625 0l0 -0.734375q1.5 -1.34375 2.921875 -2.734375q0.65625 -0.65625 0.90625 -0.953125q0.25 -0.3125 0.328125 -0.53125q0.09375 -0.234375 0.09375 -0.46875q0 -0.640625 -0.515625 -1.125q-0.5 -0.484375 -1.21875 -0.484375q-0.640625 0 -1.140625 0.375q-0.5 0.359375 -0.640625 0.90625q-0.046875 0.140625 -0.09375 0.1875q-0.0625 0.046875 -0.15625 0.046875q-0.109375 0 -0.171875 -0.0625q-0.0625 -0.0625 -0.0625 -0.15625q0 -0.28125 0.296875 -0.765625q0.3125 -0.484375 0.84375 -0.75q0.546875 -0.28125 1.125 -0.28125q0.921875 0 1.578125 0.640625q0.65625 0.640625 0.65625 1.453125q0 0.328125 -0.109375 0.625q-0.109375 0.28125 -0.375 0.625q-0.265625 0.328125 -0.953125 1.0q-1.734375 1.71875 -2.828125 2.65625l0 0.03125zm10.326172 -3.5q0.6875 0.296875 1.03125 0.828125q0.359375 0.53125 0.359375 1.109375q0 0.890625 -0.71875 1.5625q-0.703125 0.671875 -1.78125 0.671875q-0.640625 0 -1.328125 -0.265625q-0.671875 -0.265625 -0.9375 -0.546875q-0.09375 -0.09375 -0.09375 -0.203125q0 -0.09375 0.0625 -0.15625q0.078125 -0.078125 0.171875 -0.078125q0.09375 0 0.203125 0.09375q0.90625 0.671875 1.921875 0.671875q0.859375 0 1.4375 -0.53125q0.578125 -0.546875 0.578125 -1.203125q0 -0.4375 -0.28125 -0.859375q-0.28125 -0.421875 -0.828125 -0.65625q-0.53125 -0.25 -1.078125 -0.25q-0.171875 0 -0.25 -0.0625q-0.078125 -0.078125 -0.078125 -0.1875q0 -0.109375 0.078125 -0.171875q0.078125 -0.078125 0.21875 -0.078125l0.421875 0.015625q0.671875 0 1.09375 -0.40625q0.4375 -0.40625 0.4375 -0.9375q0 -0.546875 -0.453125 -0.96875q-0.453125 -0.421875 -1.1875 -0.421875q-0.5 0 -0.9375 0.171875q-0.421875 0.171875 -0.671875 0.484375q-0.09375 0.109375 -0.15625 0.140625q-0.046875 0.015625 -0.109375 0.015625q-0.09375 0 -0.171875 -0.0625q-0.0625 -0.0625 -0.0625 -0.15625q0 -0.234375 0.5 -0.59375q0.71875 -0.5 1.609375 -0.5q0.9375 0 1.53125 0.5625q0.609375 0.5625 0.609375 1.328125q0 0.5 -0.296875 0.9375q-0.28125 0.4375 -0.84375 0.703125z" fill-rule="nonzero"/><path fill="#000000" d="m452.21387 246.7987l-3.265625 0l0 -0.5625l2.734375 -4.734375l1.03125 0l0 4.8125l0.40625 0q0.1875 0 0.265625 0.0625q0.078125 0.0625 0.078125 0.1875q0 0.09375 -0.078125 0.171875q-0.078125 0.0625 -0.265625 0.0625l-0.40625 0l0 1.5625l0.40625 0q0.1875 0 0.265625 0.078125q0.078125 0.0625 0.078125 0.171875q0 0.109375 -0.078125 0.1875q-0.078125 0.0625 -0.265625 0.0625l-1.828125 0q-0.171875 0 -0.25 -0.0625q-0.078125 -0.078125 -0.078125 -0.1875q0 -0.109375 0.078125 -0.171875q0.078125 -0.078125 0.25 -0.078125l0.921875 0l0 -1.5625zm0 -0.484375l0 -4.3125l-0.25 0l-2.5 4.3125l2.75 0zm4.935547 -4.3125l0 2.40625q0.421875 -0.171875 0.8125 -0.265625q0.40625 -0.09375 0.765625 -0.09375q0.9375 0 1.546875 0.65625q0.625 0.640625 0.625 1.703125q0 1.171875 -0.703125 1.90625q-0.703125 0.71875 -1.75 0.71875q-0.703125 0 -1.34375 -0.3125q-0.453125 -0.21875 -0.828125 -0.53125q-0.21875 -0.203125 -0.21875 -0.328125q0 -0.109375 0.0625 -0.171875q0.078125 -0.078125 0.171875 -0.078125q0.09375 0 0.203125 0.109375q0.890625 0.828125 1.921875 0.828125q0.875 0 1.4375 -0.59375q0.5625 -0.59375 0.5625 -1.5625q0 -0.84375 -0.5 -1.34375q-0.484375 -0.5 -1.234375 -0.5q-0.765625 0 -1.53125 0.390625q-0.1875 0.09375 -0.265625 0.09375q-0.109375 0 -0.171875 -0.0625q-0.0625 -0.078125 -0.0625 -0.203125l0 -3.265625l3.4375 0q0.171875 0 0.25 0.078125q0.078125 0.0625 0.078125 0.171875q0 0.109375 -0.078125 0.1875q-0.078125 0.0625 -0.25 0.0625l-2.9375 0zm7.091797 3.75q0.453125 -0.671875 0.9375 -1.0q0.484375 -0.328125 1.078125 -0.328125q0.78125 0 1.390625 0.65625q0.609375 0.65625 0.609375 1.625q0 0.875 -0.5625 1.609375q-0.546875 0.71875 -1.53125 0.71875q-0.640625 0 -1.203125 -0.390625q-0.546875 -0.390625 -0.859375 -1.203125q-0.390625 -1.015625 -0.390625 -2.25q0 -0.921875 0.359375 -1.71875q0.28125 -0.609375 0.75 -1.078125q0.46875 -0.46875 1.09375 -0.765625q0.625 -0.296875 1.359375 -0.296875q0.484375 0 0.8125 0.203125q0.140625 0.078125 0.140625 0.234375q0 0.109375 -0.0625 0.171875q-0.0625 0.0625 -0.15625 0.0625q-0.078125 0 -0.1875 -0.0625q-0.234375 -0.109375 -0.59375 -0.109375q-1.140625 0 -2.09375 0.984375q-0.9375 0.984375 -0.9375 2.328125q0 0.203125 0.046875 0.609375zm0.109375 0.8125q0.21875 1.0625 0.6875 1.53125q0.484375 0.453125 1.140625 0.453125q0.65625 0 1.109375 -0.515625q0.46875 -0.515625 0.46875 -1.328125q0 -0.78125 -0.46875 -1.28125q-0.46875 -0.5 -1.0625 -0.5q-0.5625 0 -1.09375 0.484375q-0.34375 0.328125 -0.78125 1.15625z" fill-rule="nonzero"/><path fill="#000000" fill-opacity="0.0" d="m32.0 43.800526l164.0 0l0 58.01575l-164.0 0z" fill-rule="evenodd"/><path fill="#000000" d="m45.359375 74.642395q-1.359375 -1.703125 -2.296875 -4.0q-0.9375 -2.296875 -0.9375 -4.765625q0 -2.1562462 0.703125 -4.140621q0.828125 -2.3125 2.53125 -4.59375l1.171875 0q-1.09375 1.890625 -1.453125 2.703125q-0.546875 1.25 -0.875 2.625q-0.390625 1.7031212 -0.390625 3.4218712q0 4.375 2.71875 8.75l-1.171875 0zm8.806427 -3.921875l-1.640625 0l0 -10.453121q-0.59375 0.5625 -1.5625 1.140625q-0.953125 0.5625 -1.71875 0.84375l0 -1.59375q1.375 -0.640625 2.40625 -1.5625q1.03125 -0.921875 1.453125 -1.78125l1.0625 0l0 13.406246zm12.813217 -1.578125l0 1.578125l-8.828125 0q-0.015625 -0.59375 0.1875 -1.140625q0.34375 -0.90625 1.078125 -1.78125q0.75 -0.875 2.15625 -2.015625q2.171875 -1.78125 2.9375 -2.8281212q0.765625 -1.046875 0.765625 -1.96875q0 -0.984375 -0.703125 -1.640625q-0.6875 -0.671875 -1.8125 -0.671875q-1.1875 0 -1.90625 0.71875q-0.703125 0.703125 -0.703125 1.953125l-1.6875 -0.171875q0.171875 -1.890625 1.296875 -2.875q1.140625 -0.984375 3.03125 -0.984375q1.921875 0 3.046875 1.0625q1.125 1.0625 1.125 2.640625q0 0.796875 -0.328125 1.578125q-0.328125 0.78125 -1.09375 1.6406212q-0.75 0.84375 -2.53125 2.34375q-1.46875 1.234375 -1.890625 1.6875q-0.421875 0.4375 -0.6875 0.875l6.546875 0zm1.7663422 -1.953125l1.640625 -0.21875q0.28125 1.40625 0.953125 2.015625q0.6875 0.609375 1.65625 0.609375q1.15625 0 1.953125 -0.796875q0.796875 -0.796875 0.796875 -1.984375q0 -1.125 -0.734375 -1.859375q-0.734375 -0.734375 -1.875 -0.734375q-0.46875 0 -1.15625 0.171875l0.1875 -1.4374962q0.15625 0.015625 0.265625 0.015625q1.046875 0 1.875 -0.546875q0.84375 -0.546875 0.84375 -1.671875q0 -0.90625 -0.609375 -1.5q-0.609375 -0.59375 -1.578125 -0.59375q-0.953125 0 -1.59375 0.609375q-0.640625 0.59375 -0.8125 1.796875l-1.640625 -0.296875q0.296875 -1.640625 1.359375 -2.546875q1.0625 -0.90625 2.65625 -0.90625q1.09375 0 2.0 0.46875q0.921875 0.46875 1.40625 1.28125q0.5 0.8125 0.5 1.71875q0 0.859375 -0.46875 1.578125q-0.46875 0.703125 -1.375 1.125q1.1875 0.28125 1.84375 1.1406212q0.65625 0.859375 0.65625 2.15625q0 1.734375 -1.28125 2.953125q-1.265625 1.21875 -3.21875 1.21875q-1.765625 0 -2.921875 -1.046875q-1.15625 -1.046875 -1.328125 -2.71875zm11.250717 3.53125l0 -1.875l1.875 0l0 1.875q0 1.03125 -0.375 1.65625q-0.359375 0.640625 -1.15625 0.984375l-0.453125 -0.703125q0.515625 -0.21875 0.765625 -0.671875q0.25 -0.4375 0.28125 -1.265625l-0.9375 0zm14.741608 0l0 -3.203125l-5.796875 0l0 -1.5l6.09375 -8.656246l1.34375 0l0 8.656246l1.796875 0l0 1.5l-1.796875 0l0 3.203125l-1.640625 0zm0 -4.703125l0 -6.015621l-4.1875 6.015621l4.1875 0zm5.125717 1.203125l1.71875 -0.140625q0.1875 1.25 0.875 1.890625q0.703125 0.625 1.6875 0.625q1.1875 0 2.0 -0.890625q0.828125 -0.890625 0.828125 -2.359375q0 -1.40625 -0.796875 -2.21875q-0.78125 -0.8124962 -2.0625 -0.8124962q-0.78125 0 -1.421875 0.359375q-0.640625 0.3593712 -1.0 0.9374962l-1.546875 -0.203125l1.296875 -6.859371l6.640625 0l0 1.5625l-5.328125 0l-0.71875 3.59375q1.203125 -0.84375 2.515625 -0.84375q1.75 0 2.953125 1.21875q1.203125 1.2031212 1.203125 3.1093712q0 1.8125 -1.046875 3.140625q-1.296875 1.625 -3.515625 1.625q-1.8125 0 -2.96875 -1.015625q-1.15625 -1.03125 -1.3125 -2.71875zm18.875717 -6.578121l-1.625 0.125q-0.21875 -0.96875 -0.625 -1.40625q-0.65625 -0.703125 -1.640625 -0.703125q-0.78125 0 -1.375 0.4375q-0.765625 0.5625 -1.21875 1.65625q-0.453125 1.078125 -0.46875 3.078125q0.59375 -0.890625 1.453125 -1.328125q0.859375 -0.4375 1.796875 -0.4375q1.640625 0 2.78125 1.203125q1.15625 1.2031212 1.15625 3.1093712q0 1.265625 -0.546875 2.34375q-0.53125 1.078125 -1.484375 1.65625q-0.9375 0.578125 -2.140625 0.578125q-2.0625 0 -3.359375 -1.5q-1.28125 -1.515625 -1.28125 -4.984375q0 -3.8749962 1.421875 -5.624996q1.25 -1.53125 3.375 -1.53125q1.5625 0 2.5625 0.890625q1.015625 0.875 1.21875 2.4375zm-6.6875 5.749996q0 0.84375 0.359375 1.625q0.359375 0.765625 1.0 1.171875q0.640625 0.40625 1.359375 0.40625q1.03125 0 1.78125 -0.828125q0.75 -0.84375 0.75 -2.28125q0 -1.390625 -0.734375 -2.1875q-0.734375 -0.7968712 -1.859375 -0.7968712q-1.109375 0 -1.890625 0.7968712q-0.765625 0.796875 -0.765625 2.09375zm10.094467 8.25l-1.1875 0q2.734375 -4.375 2.734375 -8.75q0 -1.71875 -0.390625 -3.3906212q-0.3125 -1.375 -0.875 -2.625q-0.359375 -0.828125 -1.46875 -2.734375l1.1875 0q1.703125 2.28125 2.53125 4.59375q0.6875 1.984375 0.6875 4.140621q0 2.46875 -0.9375 4.765625q-0.9375 2.296875 -2.28125 4.0zm12.099106 -3.921875l-2.96875 -9.671871l1.703125 0l1.53125 5.578121l0.578125 2.078125q0.046875 -0.15625 0.5 -2.0l1.546875 -5.656246l1.6875 0l1.4375 5.609371l0.484375 1.84375l0.5625 -1.859375l1.65625 -5.593746l1.59375 0l-3.03125 9.671871l-1.703125 0l-1.53125 -5.796875l-0.375 -1.6406212l-1.953125 7.437496l-1.71875 0zm11.691696 -11.468746l0 -1.890625l1.640625 0l0 1.890625l-1.640625 0zm0 11.468746l0 -9.671871l1.640625 0l0 9.671871l-1.640625 0zm7.722946 -1.46875l0.234375 1.453125q-0.6875 0.140625 -1.234375 0.140625q-0.890625 0 -1.390625 -0.28125q-0.484375 -0.28125 -0.6875 -0.734375q-0.203125 -0.46875 -0.203125 -1.9375l0 -5.578121l-1.203125 0l0 -1.265625l1.203125 0l0 -2.390625l1.625 -0.984375l0 3.375l1.65625 0l0 1.265625l-1.65625 0l0 5.671871q0 0.6875 0.078125 0.890625q0.09375 0.203125 0.28125 0.328125q0.203125 0.109375 0.578125 0.109375q0.265625 0 0.71875 -0.0625zm1.6051788 1.46875l0 -13.359371l1.640625 0l0 4.796875q1.140625 -1.328125 2.890625 -1.328125q1.078125 0 1.859375 0.421875q0.796875 0.421875 1.140625 1.171875q0.34375 0.75 0.34375 2.1718712l0 6.125l-1.640625 0l0 -6.125q0 -1.2343712 -0.53125 -1.7968712q-0.53125 -0.5625 -1.515625 -0.5625q-0.71875 0 -1.359375 0.390625q-0.640625 0.375 -0.921875 1.015625q-0.265625 0.6406212 -0.265625 1.7812462l0 5.296875l-1.640625 0z" fill-rule="nonzero"/><path fill="#000000" d="m43.734375 92.72052l-1.515625 0l0 -13.359375l1.640625 0l0 4.765625q1.046875 -1.296875 2.65625 -1.296875q0.890625 0 1.6875 0.359375q0.796875 0.359375 1.3125 1.015625q0.515625 0.640625 0.796875 1.5625q0.296875 0.921875 0.296875 1.96875q0 2.484375 -1.234375 3.84375q-1.21875 1.359375 -2.953125 1.359375q-1.703125 0 -2.6875 -1.4375l0 1.21875zm-0.015625 -4.90625q0 1.734375 0.484375 2.515625q0.765625 1.265625 2.09375 1.265625q1.078125 0 1.859375 -0.9375q0.78125 -0.9375 0.78125 -2.78125q0 -1.890625 -0.75 -2.796875q-0.75 -0.90625 -1.828125 -0.90625q-1.0625 0 -1.859375 0.9375q-0.78125 0.9375 -0.78125 2.703125zm8.281967 0.0625q0 -2.6875 1.484375 -3.96875q1.25 -1.078125 3.046875 -1.078125q2.0 0 3.265625 1.3125q1.265625 1.296875 1.265625 3.609375q0 1.859375 -0.5625 2.9375q-0.5625 1.0625 -1.640625 1.65625q-1.0625 0.59375 -2.328125 0.59375q-2.03125 0 -3.28125 -1.296875q-1.25 -1.3125 -1.25 -3.765625zm1.6875 0q0 1.859375 0.796875 2.796875q0.8125 0.921875 2.046875 0.921875q1.21875 0 2.03125 -0.921875q0.8125 -0.9375 0.8125 -2.84375q0 -1.796875 -0.8125 -2.71875q-0.8125 -0.921875 -2.03125 -0.921875q-1.234375 0 -2.046875 0.921875q-0.796875 0.90625 -0.796875 2.765625zm8.203842 4.84375l3.53125 -5.03125l-3.265625 -4.640625l2.046875 0l1.484375 2.265625q0.421875 0.640625 0.671875 1.078125q0.40625 -0.59375 0.734375 -1.0625l1.640625 -2.28125l1.953125 0l-3.34375 4.546875l3.59375 5.125l-2.015625 0l-1.984375 -3.0l-0.515625 -0.8125l-2.546875 3.8125l-1.984375 0zm17.046875 -3.109375l1.6875 0.203125q-0.40625 1.484375 -1.484375 2.3125q-1.078125 0.8125 -2.765625 0.8125q-2.125 0 -3.375 -1.296875q-1.234375 -1.3125 -1.234375 -3.671875q0 -2.453125 1.25 -3.796875q1.265625 -1.34375 3.265625 -1.34375q1.9375 0 3.15625 1.328125q1.234375 1.3125 1.234375 3.703125q0 0.15625 0 0.4375l-7.21875 0q0.09375 1.59375 0.90625 2.453125q0.8125 0.84375 2.015625 0.84375q0.90625 0 1.546875 -0.46875q0.640625 -0.484375 1.015625 -1.515625zm-5.390625 -2.65625l5.40625 0q-0.109375 -1.21875 -0.625 -1.828125q-0.78125 -0.953125 -2.03125 -0.953125q-1.125 0 -1.90625 0.765625q-0.765625 0.75 -0.84375 2.015625zm15.406967 5.765625l0 -1.21875q-0.90625 1.4375 -2.703125 1.4375q-1.15625 0 -2.125 -0.640625q-0.96875 -0.640625 -1.5 -1.78125q-0.53125 -1.140625 -0.53125 -2.625q0 -1.453125 0.484375 -2.625q0.484375 -1.1875 1.4375 -1.8125q0.96875 -0.625 2.171875 -0.625q0.875 0 1.546875 0.375q0.6875 0.359375 1.109375 0.953125l0 -4.796875l1.640625 0l0 13.359375l-1.53125 0zm-5.171875 -4.828125q0 1.859375 0.78125 2.78125q0.78125 0.921875 1.84375 0.921875q1.078125 0 1.828125 -0.875q0.75 -0.890625 0.75 -2.6875q0 -1.984375 -0.765625 -2.90625q-0.765625 -0.9375 -1.890625 -0.9375q-1.078125 0 -1.8125 0.890625q-0.734375 0.890625 -0.734375 2.8125zm14.465271 -6.640625l0 -1.890625l1.640625 0l0 1.890625l-1.640625 0zm0 11.46875l0 -9.671875l1.640625 0l0 9.671875l-1.640625 0zm4.144821 0l0 -9.671875l1.46875 0l0 1.375q1.0625 -1.59375 3.078125 -1.59375q0.875 0 1.609375 0.3125q0.734375 0.3125 1.09375 0.828125q0.375 0.5 0.515625 1.203125q0.09375 0.453125 0.09375 1.59375l0 5.953125l-1.640625 0l0 -5.890625q0 -1.0 -0.203125 -1.484375q-0.1875 -0.5 -0.671875 -0.796875q-0.484375 -0.296875 -1.140625 -0.296875q-1.046875 0 -1.8125 0.671875q-0.75 0.65625 -0.75 2.515625l0 5.28125l-1.640625 0zm13.953842 -1.46875l0.234375 1.453125q-0.6875 0.140625 -1.234375 0.140625q-0.890625 0 -1.390625 -0.28125q-0.484375 -0.28125 -0.6875 -0.734375q-0.203125 -0.46875 -0.203125 -1.9375l0 -5.578125l-1.203125 0l0 -1.265625l1.203125 0l0 -2.390625l1.625 -0.984375l0 3.375l1.65625 0l0 1.265625l-1.65625 0l0 5.671875q0 0.6875 0.078125 0.890625q0.09375 0.203125 0.28125 0.328125q0.203125 0.109375 0.578125 0.109375q0.265625 0 0.71875 -0.0625zm8.230179 -1.640625l1.6875 0.203125q-0.40625 1.484375 -1.484375 2.3125q-1.078125 0.8125 -2.765625 0.8125q-2.125 0 -3.375 -1.296875q-1.234375 -1.3125 -1.234375 -3.671875q0 -2.453125 1.25 -3.796875q1.265625 -1.34375 3.265625 -1.34375q1.9375 0 3.15625 1.328125q1.234375 1.3125 1.234375 3.703125q0 0.15625 0 0.4375l-7.21875 0q0.09375 1.59375 0.90625 2.453125q0.8125 0.84375 2.015625 0.84375q0.90625 0 1.546875 -0.46875q0.640625 -0.484375 1.015625 -1.515625zm-5.390625 -2.65625l5.40625 0q-0.109375 -1.21875 -0.625 -1.828125q-0.78125 -0.953125 -2.03125 -0.953125q-1.125 0 -1.90625 0.765625q-0.765625 0.75 -0.84375 2.015625zm8.828842 6.5625l1.59375 0.234375q0.109375 0.75 0.5625 1.078125q0.609375 0.453125 1.671875 0.453125q1.140625 0 1.75 -0.453125q0.625 -0.453125 0.84375 -1.265625q0.125 -0.5 0.109375 -2.109375q-1.0625 1.265625 -2.671875 1.265625q-2.0 0 -3.09375 -1.4375q-1.09375 -1.4375 -1.09375 -3.453125q0 -1.390625 0.5 -2.5625q0.515625 -1.171875 1.453125 -1.796875q0.953125 -0.640625 2.25 -0.640625q1.703125 0 2.8125 1.375l0 -1.15625l1.515625 0l0 8.359375q0 2.265625 -0.46875 3.203125q-0.453125 0.9375 -1.453125 1.484375q-0.984375 0.546875 -2.453125 0.546875q-1.71875 0 -2.796875 -0.78125q-1.0625 -0.765625 -1.03125 -2.34375zm1.359375 -5.8125q0 1.90625 0.75 2.78125q0.765625 0.875 1.90625 0.875q1.125 0 1.890625 -0.859375q0.765625 -0.875 0.765625 -2.734375q0 -1.78125 -0.796875 -2.671875q-0.78125 -0.90625 -1.890625 -0.90625q-1.09375 0 -1.859375 0.890625q-0.765625 0.875 -0.765625 2.625zm15.953842 1.90625l1.6875 0.203125q-0.40625 1.484375 -1.484375 2.3125q-1.078125 0.8125 -2.765625 0.8125q-2.125 0 -3.375 -1.296875q-1.234375 -1.3125 -1.234375 -3.671875q0 -2.453125 1.25 -3.796875q1.265625 -1.34375 3.265625 -1.34375q1.9375 0 3.15625 1.328125q1.234375 1.3125 1.234375 3.703125q0 0.15625 0 0.4375l-7.21875 0q0.09375 1.59375 0.90625 2.453125q0.8125 0.84375 2.015625 0.84375q0.90625 0 1.546875 -0.46875q0.640625 -0.484375 1.015625 -1.515625zm-5.390625 -2.65625l5.40625 0q-0.109375 -1.21875 -0.625 -1.828125q-0.78125 -0.953125 -2.03125 -0.953125q-1.125 0 -1.90625 0.765625q-0.765625 0.75 -0.84375 2.015625zm9.125717 5.765625l0 -9.671875l1.46875 0l0 1.46875q0.5625 -1.03125 1.03125 -1.359375q0.484375 -0.328125 1.0625 -0.328125q0.828125 0 1.6875 0.53125l-0.5625 1.515625q-0.609375 -0.359375 -1.203125 -0.359375q-0.546875 0 -0.96875 0.328125q-0.421875 0.328125 -0.609375 0.890625q-0.28125 0.875 -0.28125 1.921875l0 5.0625l-1.625 0zm5.572052 -2.890625l1.625 -0.25q0.125 0.96875 0.75 1.5q0.625 0.515625 1.75 0.515625q1.125 0 1.671875 -0.453125q0.546875 -0.46875 0.546875 -1.09375q0 -0.546875 -0.484375 -0.875q-0.328125 -0.21875 -1.671875 -0.546875q-1.8125 -0.46875 -2.515625 -0.796875q-0.6875 -0.328125 -1.046875 -0.90625q-0.359375 -0.59375 -0.359375 -1.3125q0 -0.640625 0.296875 -1.1875q0.296875 -0.5625 0.8125 -0.921875q0.375 -0.28125 1.03125 -0.46875q0.671875 -0.203125 1.421875 -0.203125q1.140625 0 2.0 0.328125q0.859375 0.328125 1.265625 0.890625q0.421875 0.5625 0.578125 1.5l-1.609375 0.21875q-0.109375 -0.75 -0.640625 -1.171875q-0.515625 -0.421875 -1.46875 -0.421875q-1.140625 0 -1.625 0.375q-0.46875 0.375 -0.46875 0.875q0 0.3125 0.1875 0.578125q0.203125 0.265625 0.640625 0.4375q0.234375 0.09375 1.4375 0.421875q1.75 0.453125 2.4375 0.75q0.6875 0.296875 1.078125 0.859375q0.390625 0.5625 0.390625 1.40625q0 0.828125 -0.484375 1.546875q-0.46875 0.71875 -1.375 1.125q-0.90625 0.390625 -2.046875 0.390625q-1.875 0 -2.875 -0.78125q-0.984375 -0.78125 -1.25 -2.328125z" fill-rule="nonzero"/><path fill="#000000" fill-opacity="0.0" d="m26.0 216.0l164.0 0l0 58.015747l-164.0 0z" fill-rule="evenodd"/><path fill="#000000" d="m39.359375 246.84187q-1.359375 -1.703125 -2.296875 -4.0q-0.9375 -2.296875 -0.9375 -4.765625q0 -2.15625 0.703125 -4.140625q0.828125 -2.3125 2.53125 -4.59375l1.171875 0q-1.09375 1.890625 -1.453125 2.703125q-0.546875 1.25 -0.875 2.625q-0.390625 1.703125 -0.390625 3.421875q0 4.375 2.71875 8.75l-1.171875 0zm8.806427 -3.921875l-1.640625 0l0 -10.453125q-0.59375 0.5625 -1.5625 1.140625q-0.953125 0.5625 -1.71875 0.84375l0 -1.59375q1.375 -0.640625 2.40625 -1.5625q1.03125 -0.921875 1.453125 -1.78125l1.0625 0l0 13.40625zm12.813217 -1.578125l0 1.578125l-8.828125 0q-0.015625 -0.59375 0.1875 -1.140625q0.34375 -0.90625 1.078125 -1.78125q0.75 -0.875 2.15625 -2.015625q2.171875 -1.78125 2.9375 -2.828125q0.765625 -1.046875 0.765625 -1.96875q0 -0.984375 -0.703125 -1.640625q-0.6875 -0.671875 -1.8125 -0.671875q-1.1875 0 -1.90625 0.71875q-0.703125 0.703125 -0.703125 1.953125l-1.6875 -0.171875q0.171875 -1.890625 1.296875 -2.875q1.140625 -0.984375 3.03125 -0.984375q1.921875 0 3.046875 1.0625q1.125 1.0625 1.125 2.640625q0 0.796875 -0.328125 1.578125q-0.328125 0.78125 -1.09375 1.640625q-0.75 0.84375 -2.53125 2.34375q-1.46875 1.234375 -1.890625 1.6875q-0.421875 0.4375 -0.6875 0.875l6.546875 0zm1.7663422 -1.953125l1.640625 -0.21875q0.28125 1.40625 0.953125 2.015625q0.6875 0.609375 1.65625 0.609375q1.15625 0 1.953125 -0.796875q0.796875 -0.796875 0.796875 -1.984375q0 -1.125 -0.734375 -1.859375q-0.734375 -0.734375 -1.875 -0.734375q-0.46875 0 -1.15625 0.171875l0.1875 -1.4375q0.15625 0.015625 0.265625 0.015625q1.046875 0 1.875 -0.546875q0.84375 -0.546875 0.84375 -1.671875q0 -0.90625 -0.609375 -1.5q-0.609375 -0.59375 -1.578125 -0.59375q-0.953125 0 -1.59375 0.609375q-0.640625 0.59375 -0.8125 1.796875l-1.640625 -0.296875q0.296875 -1.640625 1.359375 -2.546875q1.0625 -0.90625 2.65625 -0.90625q1.09375 0 2.0 0.46875q0.921875 0.46875 1.40625 1.28125q0.5 0.8125 0.5 1.71875q0 0.859375 -0.46875 1.578125q-0.46875 0.703125 -1.375 1.125q1.1875 0.28125 1.84375 1.140625q0.65625 0.859375 0.65625 2.15625q0 1.734375 -1.28125 2.953125q-1.265625 1.21875 -3.21875 1.21875q-1.765625 0 -2.921875 -1.046875q-1.15625 -1.046875 -1.328125 -2.71875zm11.250717 3.53125l0 -1.875l1.875 0l0 1.875q0 1.03125 -0.375 1.65625q-0.359375 0.640625 -1.15625 0.984375l-0.453125 -0.703125q0.515625 -0.21875 0.765625 -0.671875q0.25 -0.4375 0.28125 -1.265625l-0.9375 0zm14.741608 0l0 -3.203125l-5.796875 0l0 -1.5l6.09375 -8.65625l1.34375 0l0 8.65625l1.796875 0l0 1.5l-1.796875 0l0 3.203125l-1.640625 0zm0 -4.703125l0 -6.015625l-4.1875 6.015625l4.1875 0zm5.125717 1.203125l1.71875 -0.140625q0.1875 1.25 0.875 1.890625q0.703125 0.625 1.6875 0.625q1.1875 0 2.0 -0.890625q0.828125 -0.890625 0.828125 -2.359375q0 -1.40625 -0.796875 -2.21875q-0.78125 -0.8125 -2.0625 -0.8125q-0.78125 0 -1.421875 0.359375q-0.640625 0.359375 -1.0 0.9375l-1.546875 -0.203125l1.296875 -6.859375l6.640625 0l0 1.5625l-5.328125 0l-0.71875 3.59375q1.203125 -0.84375 2.515625 -0.84375q1.75 0 2.953125 1.21875q1.203125 1.203125 1.203125 3.109375q0 1.8125 -1.046875 3.140625q-1.296875 1.625 -3.515625 1.625q-1.8125 0 -2.96875 -1.015625q-1.15625 -1.03125 -1.3125 -2.71875zm18.875717 -6.578125l-1.625 0.125q-0.21875 -0.96875 -0.625 -1.40625q-0.65625 -0.703125 -1.640625 -0.703125q-0.78125 0 -1.375 0.4375q-0.765625 0.5625 -1.21875 1.65625q-0.453125 1.078125 -0.46875 3.078125q0.59375 -0.890625 1.453125 -1.328125q0.859375 -0.4375 1.796875 -0.4375q1.640625 0 2.78125 1.203125q1.15625 1.203125 1.15625 3.109375q0 1.265625 -0.546875 2.34375q-0.53125 1.078125 -1.484375 1.65625q-0.9375 0.578125 -2.140625 0.578125q-2.0625 0 -3.359375 -1.5q-1.28125 -1.515625 -1.28125 -4.984375q0 -3.875 1.421875 -5.625q1.25 -1.53125 3.375 -1.53125q1.5625 0 2.5625 0.890625q1.015625 0.875 1.21875 2.4375zm-6.6875 5.75q0 0.84375 0.359375 1.625q0.359375 0.765625 1.0 1.171875q0.640625 0.40625 1.359375 0.40625q1.03125 0 1.78125 -0.828125q0.75 -0.84375 0.75 -2.28125q0 -1.390625 -0.734375 -2.1875q-0.734375 -0.796875 -1.859375 -0.796875q-1.109375 0 -1.890625 0.796875q-0.765625 0.796875 -0.765625 2.09375zm10.094467 8.25l-1.1875 0q2.734375 -4.375 2.734375 -8.75q0 -1.71875 -0.390625 -3.390625q-0.3125 -1.375 -0.875 -2.625q-0.359375 -0.828125 -1.46875 -2.734375l1.1875 0q1.703125 2.28125 2.53125 4.59375q0.6875 1.984375 0.6875 4.140625q0 2.46875 -0.9375 4.765625q-0.9375 2.296875 -2.28125 4.0zm12.099106 -3.921875l-2.96875 -9.671875l1.703125 0l1.53125 5.578125l0.578125 2.078125q0.046875 -0.15625 0.5 -2.0l1.546875 -5.65625l1.6875 0l1.4375 5.609375l0.484375 1.84375l0.5625 -1.859375l1.65625 -5.59375l1.59375 0l-3.03125 9.671875l-1.703125 0l-1.53125 -5.796875l-0.375 -1.640625l-1.953125 7.4375l-1.71875 0zm11.691696 -11.46875l0 -1.890625l1.640625 0l0 1.890625l-1.640625 0zm0 11.46875l0 -9.671875l1.640625 0l0 9.671875l-1.640625 0zm7.722946 -1.46875l0.234375 1.453125q-0.6875 0.140625 -1.234375 0.140625q-0.890625 0 -1.390625 -0.28125q-0.484375 -0.28125 -0.6875 -0.734375q-0.203125 -0.46875 -0.203125 -1.9375l0 -5.578125l-1.203125 0l0 -1.265625l1.203125 0l0 -2.390625l1.625 -0.984375l0 3.375l1.65625 0l0 1.265625l-1.65625 0l0 5.671875q0 0.6875 0.078125 0.890625q0.09375 0.203125 0.28125 0.328125q0.203125 0.109375 0.578125 0.109375q0.265625 0 0.71875 -0.0625zm1.6051788 1.46875l0 -13.359375l1.640625 0l0 4.796875q1.140625 -1.328125 2.890625 -1.328125q1.078125 0 1.859375 0.421875q0.796875 0.421875 1.140625 1.171875q0.34375 0.75 0.34375 2.171875l0 6.125l-1.640625 0l0 -6.125q0 -1.234375 -0.53125 -1.796875q-0.53125 -0.5625 -1.515625 -0.5625q-0.71875 0 -1.359375 0.390625q-0.640625 0.375 -0.921875 1.015625q-0.265625 0.640625 -0.265625 1.78125l0 5.296875l-1.640625 0z" fill-rule="nonzero"/><path fill="#000000" d="m42.5625 264.91998l0 -1.421875q-1.125 1.640625 -3.0625 1.640625q-0.859375 0 -1.609375 -0.328125q-0.734375 -0.328125 -1.09375 -0.828125q-0.359375 -0.5 -0.5 -1.21875q-0.109375 -0.46875 -0.109375 -1.53125l0 -5.9843597l1.640625 0l0 5.3593597q0 1.28125 0.109375 1.734375q0.15625 0.640625 0.65625 1.015625q0.5 0.375 1.234375 0.375q0.734375 0 1.375 -0.375q0.65625 -0.390625 0.921875 -1.03125q0.265625 -0.65625 0.265625 -1.890625l0 -5.1874847l1.640625 0l0 9.67186l-1.46875 0zm4.047592 0l0 -9.67186l1.46875 0l0 1.3749847q1.0625 -1.5937347 3.078125 -1.5937347q0.875 0 1.609375 0.3125q0.734375 0.3125 1.09375 0.82810974q0.375 0.5 0.515625 1.203125q0.09375 0.453125 0.09375 1.59375l0 5.953125l-1.640625 0l0 -5.890625q0 -1.0 -0.203125 -1.484375q-0.1875 -0.5 -0.671875 -0.796875q-0.484375 -0.296875 -1.140625 -0.296875q-1.046875 0 -1.8125 0.671875q-0.75 0.65625 -0.75 2.515625l0 5.28125l-1.640625 0zm11.875717 0l-1.515625 0l0 -13.35936l1.640625 0l0 4.7656097q1.046875 -1.2968597 2.65625 -1.2968597q0.890625 0 1.6875 0.359375q0.796875 0.359375 1.3125 1.0156097q0.515625 0.640625 0.796875 1.5625q0.296875 0.921875 0.296875 1.96875q0 2.484375 -1.234375 3.84375q-1.21875 1.359375 -2.953125 1.359375q-1.703125 0 -2.6875 -1.4375l0 1.21875zm-0.015625 -4.90625q0 1.734375 0.484375 2.515625q0.765625 1.265625 2.09375 1.265625q1.078125 0 1.859375 -0.9375q0.78125 -0.9375 0.78125 -2.78125q0 -1.890625 -0.75 -2.796875q-0.75 -0.90625 -1.828125 -0.90625q-1.0625 0 -1.859375 0.9375q-0.78125 0.9375 -0.78125 2.703125zm8.281967 0.0625q0 -2.6875 1.484375 -3.96875q1.25 -1.0781097 3.046875 -1.0781097q2.0 0 3.265625 1.3124847q1.265625 1.296875 1.265625 3.609375q0 1.859375 -0.5625 2.9375q-0.5625 1.0625 -1.640625 1.65625q-1.0625 0.59375 -2.328125 0.59375q-2.03125 0 -3.28125 -1.296875q-1.25 -1.3125 -1.25 -3.765625zm1.6875 0q0 1.859375 0.796875 2.796875q0.8125 0.921875 2.046875 0.921875q1.21875 0 2.03125 -0.921875q0.8125 -0.9375 0.8125 -2.84375q0 -1.796875 -0.8125 -2.71875q-0.8125 -0.921875 -2.03125 -0.921875q-1.234375 0 -2.046875 0.921875q-0.796875 0.90625 -0.796875 2.765625zm8.203842 4.84375l3.53125 -5.03125l-3.265625 -4.6406097l2.046875 0l1.484375 2.2656097q0.421875 0.640625 0.671875 1.078125q0.40625 -0.59375 0.734375 -1.0625l1.640625 -2.2812347l1.953125 0l-3.34375 4.5468597l3.59375 5.125l-2.015625 0l-1.984375 -3.0l-0.515625 -0.8125l-2.546875 3.8125l-1.984375 0zm17.046875 -3.109375l1.6875 0.203125q-0.40625 1.484375 -1.484375 2.3125q-1.078125 0.8125 -2.765625 0.8125q-2.125 0 -3.375 -1.296875q-1.234375 -1.3125 -1.234375 -3.671875q0 -2.453125 1.25 -3.796875q1.265625 -1.3437347 3.265625 -1.3437347q1.9375 0 3.15625 1.3281097q1.234375 1.3125 1.234375 3.703125q0 0.15625 0 0.4375l-7.21875 0q0.09375 1.59375 0.90625 2.453125q0.8125 0.84375 2.015625 0.84375q0.90625 0 1.546875 -0.46875q0.640625 -0.484375 1.015625 -1.515625zm-5.390625 -2.65625l5.40625 0q-0.109375 -1.21875 -0.625 -1.828125q-0.78125 -0.953125 -2.03125 -0.953125q-1.125 0 -1.90625 0.765625q-0.765625 0.75 -0.84375 2.015625zm15.406967 5.765625l0 -1.21875q-0.90625 1.4375 -2.703125 1.4375q-1.15625 0 -2.125 -0.640625q-0.96875 -0.640625 -1.5 -1.78125q-0.53125 -1.140625 -0.53125 -2.625q0 -1.453125 0.484375 -2.625q0.484375 -1.1875 1.4375 -1.8124847q0.96875 -0.625 2.171875 -0.625q0.875 0 1.546875 0.375q0.6875 0.359375 1.109375 0.95310974l0 -4.7968597l1.640625 0l0 13.35936l-1.53125 0zm-5.171875 -4.828125q0 1.859375 0.78125 2.78125q0.78125 0.921875 1.84375 0.921875q1.078125 0 1.828125 -0.875q0.75 -0.890625 0.75 -2.6875q0 -1.984375 -0.765625 -2.90625q-0.765625 -0.9375 -1.890625 -0.9375q-1.078125 0 -1.8125 0.890625q-0.734375 0.890625 -0.734375 2.8125zm14.465271 -6.6406097l0 -1.890625l1.640625 0l0 1.890625l-1.640625 0zm0 11.468735l0 -9.67186l1.640625 0l0 9.67186l-1.640625 0zm4.144821 0l0 -9.67186l1.46875 0l0 1.3749847q1.0625 -1.5937347 3.078125 -1.5937347q0.875 0 1.609375 0.3125q0.734375 0.3125 1.09375 0.82810974q0.375 0.5 0.515625 1.203125q0.09375 0.453125 0.09375 1.59375l0 5.953125l-1.640625 0l0 -5.890625q0 -1.0 -0.203125 -1.484375q-0.1875 -0.5 -0.671875 -0.796875q-0.484375 -0.296875 -1.140625 -0.296875q-1.046875 0 -1.8125 0.671875q-0.75 0.65625 -0.75 2.515625l0 5.28125l-1.640625 0zm13.953842 -1.46875l0.234375 1.453125q-0.6875 0.140625 -1.234375 0.140625q-0.890625 0 -1.390625 -0.28125q-0.484375 -0.28125 -0.6875 -0.734375q-0.203125 -0.46875 -0.203125 -1.9375l0 -5.578125l-1.203125 0l0 -1.2656097l1.203125 0l0 -2.390625l1.625 -0.984375l0 3.375l1.65625 0l0 1.2656097l-1.65625 0l0 5.671875q0 0.6875 0.078125 0.890625q0.09375 0.203125 0.28125 0.328125q0.203125 0.109375 0.578125 0.109375q0.265625 0 0.71875 -0.0625zm8.230179 -1.640625l1.6875 0.203125q-0.40625 1.484375 -1.484375 2.3125q-1.078125 0.8125 -2.765625 0.8125q-2.125 0 -3.375 -1.296875q-1.234375 -1.3125 -1.234375 -3.671875q0 -2.453125 1.25 -3.796875q1.265625 -1.3437347 3.265625 -1.3437347q1.9375 0 3.15625 1.3281097q1.234375 1.3125 1.234375 3.703125q0 0.15625 0 0.4375l-7.21875 0q0.09375 1.59375 0.90625 2.453125q0.8125 0.84375 2.015625 0.84375q0.90625 0 1.546875 -0.46875q0.640625 -0.484375 1.015625 -1.515625zm-5.390625 -2.65625l5.40625 0q-0.109375 -1.21875 -0.625 -1.828125q-0.78125 -0.953125 -2.03125 -0.953125q-1.125 0 -1.90625 0.765625q-0.765625 0.75 -0.84375 2.015625zm8.828842 6.5625l1.59375 0.234375q0.109375 0.75 0.5625 1.078125q0.609375 0.453125 1.671875 0.453125q1.140625 0 1.75 -0.453125q0.625 -0.453125 0.84375 -1.265625q0.125 -0.5 0.109375 -2.109375q-1.0625 1.265625 -2.671875 1.265625q-2.0 0 -3.09375 -1.4375q-1.09375 -1.4375 -1.09375 -3.453125q0 -1.390625 0.5 -2.5625q0.515625 -1.171875 1.453125 -1.7968597q0.953125 -0.640625 2.25 -0.640625q1.703125 0 2.8125 1.3749847l0 -1.1562347l1.515625 0l0 8.35936q0 2.265625 -0.46875 3.203125q-0.453125 0.9375 -1.453125 1.484375q-0.984375 0.546875 -2.453125 0.546875q-1.71875 0 -2.796875 -0.78125q-1.0625 -0.765625 -1.03125 -2.34375zm1.359375 -5.8125q0 1.90625 0.75 2.78125q0.765625 0.875 1.90625 0.875q1.125 0 1.890625 -0.859375q0.765625 -0.875 0.765625 -2.734375q0 -1.78125 -0.796875 -2.671875q-0.78125 -0.90625 -1.890625 -0.90625q-1.09375 0 -1.859375 0.890625q-0.765625 0.875 -0.765625 2.625zm15.953842 1.90625l1.6875 0.203125q-0.40625 1.484375 -1.484375 2.3125q-1.078125 0.8125 -2.765625 0.8125q-2.125 0 -3.375 -1.296875q-1.234375 -1.3125 -1.234375 -3.671875q0 -2.453125 1.25 -3.796875q1.265625 -1.3437347 3.265625 -1.3437347q1.9375 0 3.15625 1.3281097q1.234375 1.3125 1.234375 3.703125q0 0.15625 0 0.4375l-7.21875 0q0.09375 1.59375 0.90625 2.453125q0.8125 0.84375 2.015625 0.84375q0.90625 0 1.546875 -0.46875q0.640625 -0.484375 1.015625 -1.515625zm-5.390625 -2.65625l5.40625 0q-0.109375 -1.21875 -0.625 -1.828125q-0.78125 -0.953125 -2.03125 -0.953125q-1.125 0 -1.90625 0.765625q-0.765625 0.75 -0.84375 2.015625zm9.125717 5.765625l0 -9.67186l1.46875 0l0 1.4687347q0.5625 -1.0312347 1.03125 -1.3593597q0.484375 -0.328125 1.0625 -0.328125q0.828125 0 1.6875 0.53125l-0.5625 1.5156097q-0.609375 -0.359375 -1.203125 -0.359375q-0.546875 0 -0.96875 0.328125q-0.421875 0.328125 -0.609375 0.890625q-0.28125 0.875 -0.28125 1.921875l0 5.0625l-1.625 0zm5.572052 -2.890625l1.625 -0.25q0.125 0.96875 0.75 1.5q0.625 0.515625 1.75 0.515625q1.125 0 1.671875 -0.453125q0.546875 -0.46875 0.546875 -1.09375q0 -0.546875 -0.484375 -0.875q-0.328125 -0.21875 -1.671875 -0.546875q-1.8125 -0.46875 -2.515625 -0.796875q-0.6875 -0.328125 -1.046875 -0.90625q-0.359375 -0.59375 -0.359375 -1.3125q0 -0.640625 0.296875 -1.1875q0.296875 -0.5625 0.8125 -0.92185974q0.375 -0.28125 1.03125 -0.46875q0.671875 -0.203125 1.421875 -0.203125q1.140625 0 2.0 0.328125q0.859375 0.328125 1.265625 0.89060974q0.421875 0.5625 0.578125 1.5l-1.609375 0.21875q-0.109375 -0.75 -0.640625 -1.171875q-0.515625 -0.421875 -1.46875 -0.421875q-1.140625 0 -1.625 0.375q-0.46875 0.375 -0.46875 0.875q0 0.3125 0.1875 0.578125q0.203125 0.265625 0.640625 0.4375q0.234375 0.09375 1.4375 0.421875q1.75 0.453125 2.4375 0.75q0.6875 0.296875 1.078125 0.859375q0.390625 0.5625 0.390625 1.40625q0 0.828125 -0.484375 1.546875q-0.46875 0.71875 -1.375 1.125q-0.90625 0.390625 -2.046875 0.390625q-1.875 0 -2.875 -0.78125q-0.984375 -0.78125 -1.25 -2.328125z" fill-rule="nonzero"/><path fill="#000000" fill-opacity="0.0" d="m144.0 184.0l312.0 0" fill-rule="evenodd"/><path stroke="#999999" stroke-width="1.0" stroke-linejoin="round" stroke-linecap="butt" d="m144.0 184.0l312.0 0" fill-rule="evenodd"/></g></svg>